<?xml version="1.0" encoding="UTF-8" standalone="no"?>
<!-- Created with Inkscape (http://www.inkscape.org/) -->

<svg
   width="59.330856mm"
   height="60.92849mm"
   viewBox="0 0 59.330856 60.92849"
   version="1.1"
   id="svg5"
   inkscape:version="1.2.2 (732a01da63, 2022-12-09)"
   sodipodi:docname="logo.svg"
   inkscape:export-filename="logo2.png"
   inkscape:export-xdpi="96"
   inkscape:export-ydpi="96"
   xmlns:inkscape="http://www.inkscape.org/namespaces/inkscape"
   xmlns:sodipodi="http://sodipodi.sourceforge.net/DTD/sodipodi-0.dtd"
   xmlns="http://www.w3.org/2000/svg"
   xmlns:svg="http://www.w3.org/2000/svg">
  <sodipodi:namedview
     id="namedview7"
     pagecolor="#ffffff"
     bordercolor="#000000"
     borderopacity="0.25"
     inkscape:showpageshadow="2"
     inkscape:pageopacity="0.0"
     inkscape:pagecheckerboard="0"
     inkscape:deskcolor="#d1d1d1"
     inkscape:document-units="mm"
     showgrid="false"
     showguides="true"
     inkscape:zoom="4.7572176"
     inkscape:cx="358.71809"
     inkscape:cy="583.84969"
     inkscape:window-width="2560"
     inkscape:window-height="1511"
     inkscape:window-x="-9"
     inkscape:window-y="-9"
     inkscape:window-maximized="1"
     inkscape:current-layer="layer1">
    <inkscape:grid
       type="xygrid"
       id="grid3186" />
  </sodipodi:namedview>
  <defs
     id="defs2" />
  <g
     inkscape:label="Layer 1"
     inkscape:groupmode="layer"
     id="layer1"
     transform="translate(-71.603136,-124.28225)">
    <path
       style="fill:#ccdafa;fill-opacity:1;stroke:#22262a;stroke-width:1;stroke-dasharray:none;stroke-opacity:1"
       d="m 124.49732,136.2972 c -0.37159,-0.0986 -0.71911,-0.3037 -0.89617,-0.5288 -0.15547,-0.19765 -0.16282,-0.30195 -0.16231,-2.30222 5.3e-4,-1.94076 -0.0563,-2.94414 -0.24132,-4.26572 -0.11497,-0.82108 0.0621,-1.24265 0.80559,-1.91773 0.99869,-0.90682 2.89208,-1.61333 4.38762,-1.63721 0.83175,-0.0133 1.23701,0.12116 1.51558,0.5028 0.16014,0.21939 0.30988,1.07066 0.44828,2.5484 0.10856,1.15912 0.10475,4.78847 -0.005,5.18535 -0.14804,0.53319 -0.84039,1.13788 -1.88488,1.64622 -0.49468,0.24075 -1.16487,0.51245 -1.48933,0.60376 -0.63475,0.17865 -2.06709,0.27413 -2.47762,0.16515 z"
       id="path4713" />
    <path
       style="fill:#ccd7fa;fill-opacity:1;stroke:#22262a;stroke-width:1;stroke-dasharray:none;stroke-opacity:1"
       d="m 116.78271,138.56563 c -0.57215,-0.0599 -1.1103,-0.33587 -1.3043,-0.66897 -0.0928,-0.15928 -0.16721,-0.55159 -0.22388,-1.17982 -0.21633,-2.39794 -0.71687,-5.14438 -1.34031,-7.35419 -0.42047,-1.49035 -0.45164,-1.76899 -0.24354,-2.1769 0.58243,-1.14167 3.13864,-2.37834 4.96687,-2.40293 0.75481,-0.0102 1.20047,0.10601 1.50839,0.39317 0.2571,0.23978 0.30302,0.35271 0.64941,1.59713 0.77932,2.79979 1.46101,6.92079 1.46002,8.82627 -2.6e-4,0.8352 -0.26077,1.2281 -1.24178,1.87405 -1.23271,0.81169 -2.87059,1.23451 -4.23088,1.09219 z"
       id="path7688" />
    <path
       style="fill:#ccd7fa;fill-opacity:1;stroke:#22262a;stroke-width:1;stroke-dasharray:none;stroke-opacity:1"
       d="m 82.740848,169.65081 c -0.24401,-0.11597 -0.45113,-0.27971 -0.51843,-0.40985 -0.2794,-0.5403 -0.94205,-3.16192 -1.34345,-5.31502 -0.2157,-1.15706 -0.22446,-1.21307 -0.30727,-1.96637 -0.0285,-0.25956 -0.0855,-0.70199 -0.12666,-0.98318 -0.0411,-0.28119 -0.095,-0.936 -0.11965,-1.45512 l -0.0449,-0.94385 0.23609,-0.3672 c 0.42821,-0.666 1.30568,-1.2607 2.47886,-1.68001 1.04957,-0.37513 2.09967,-0.51984 2.80163,-0.38609 0.62745,0.11955 0.97585,0.28128 1.13649,0.52756 0.13962,0.21407 0.28135,0.8135 0.32971,1.39448 0.0198,0.23793 0.0722,0.71576 0.116387,1.06184 0.0442,0.34608 0.0988,0.78851 0.12134,0.98318 0.0225,0.19468 0.11008,0.72559 0.19458,1.17983 0.0845,0.45422 0.1703,0.94078 0.19066,1.08122 0.0204,0.14045 0.10821,0.54748 0.19522,0.90453 0.087,0.35705 0.17539,0.75536 0.1964,0.88514 0.021,0.12978 0.1824,0.74919 0.35863,1.37646 0.17623,0.62727 0.3159,1.26414 0.31038,1.41528 -0.0458,1.25593 -2.769637,2.80512 -5.044447,2.86907 -0.66516,0.0187 -0.80372,-0.002 -1.1616,-0.1719 z"
       id="path15562" />
    <path
       style="fill:#ccd7fa;fill-opacity:1;stroke:#22262a;stroke-width:1;stroke-dasharray:none;stroke-opacity:1"
       d="m 73.281788,168.90678 c -0.37177,-0.0991 -0.6927,-0.44071 -0.7803,-0.8306 -0.23207,-1.03287 -0.39268,-3.04615 -0.39783,-4.98689 -0.006,-2.18752 0.0608,-2.47642 0.70989,-3.07734 0.49672,-0.45986 1.36326,-0.94302 2.28761,-1.2755 0.7711,-0.27736 0.76309,-0.27581 1.76973,-0.34232 0.95491,-0.0631 1.54583,0.0588 1.90041,0.39185 0.23708,0.22273 0.26171,0.45583 0.30211,2.85897 0.0189,1.12476 0.0498,2.1866 0.0687,2.35964 0.0189,0.17304 0.0596,0.75895 0.0905,1.30203 0.0517,0.90878 0.0432,1.01297 -0.10762,1.30854 -0.70374,1.37944 -4.1681,2.73811 -5.84319,2.29162 z"
       id="path17025" />
    <path
       style="fill:#22262a;fill-opacity:1;stroke:#ccd7fa;stroke-width:1;stroke-dasharray:none;stroke-opacity:1"
       d="m 106.81457,184.66354 c -0.80226,-0.26019 -1.28672,-1.23916 -2.10387,-4.25138 -0.1467,-0.54075 -0.2943,-0.99505 -0.328,-1.00956 -0.0337,-0.0145 -0.0425,-0.0567 -0.0196,-0.0938 0.0369,-0.0598 -0.22048,-1.26562 -0.33536,-1.5709 -0.0244,-0.0649 -0.0501,-0.22416 -0.057,-0.35394 -0.007,-0.12978 -0.0533,-0.31095 -0.10299,-0.4026 -0.0497,-0.0917 -0.0759,-0.18108 -0.0582,-0.19874 0.0177,-0.0177 -0.0549,-0.50899 -0.1612,-1.09184 -0.20188,-1.10669 -0.22811,-1.27892 -0.29315,-1.92494 -0.11333,-1.12565 -0.14964,-1.42611 -0.18536,-1.53376 -0.0215,-0.0649 -0.0542,-0.43654 -0.0726,-0.82588 -0.0184,-0.38934 -0.0532,-0.97335 -0.0774,-1.2978 -0.0824,-1.10639 -0.30289,-7.61374 -0.27849,-8.21941 0.0283,-0.70255 -0.0654,-0.99038 -0.30225,-0.92845 -0.0889,0.0233 -0.16163,0.0676 -0.16163,0.0986 0,0.031 -0.0442,0.0584 -0.0983,0.0609 -0.0541,0.002 -0.43457,0.0975 -0.84554,0.21122 -1.02461,0.28343 -1.390577,0.32085 -3.067527,0.3137 -1.20836,-0.005 -1.57257,-0.0349 -2.14782,-0.17564 -2.32276,-0.56818 -3.95722,-1.90802 -4.81973,-3.95097 -0.2787,-0.66012 -0.61831,-1.91946 -0.54821,-2.03289 0.0248,-0.0401 -0.002,-0.11992 -0.0585,-0.17749 -0.16146,-0.16324 -0.12487,-3.93976 0.0484,-4.99785 0.19027,-1.16171 0.52784,-2.72232 0.61047,-2.8222 0.0391,-0.0472 0.0527,-0.10427 0.0302,-0.12674 -0.0225,-0.0225 10e-4,-0.14309 0.0527,-0.26805 0.0514,-0.12497 0.0882,-0.25253 0.0818,-0.28347 -0.006,-0.0309 0.0257,-0.15483 0.0715,-0.27529 0.0458,-0.12047 0.0792,-0.21903 0.0743,-0.21903 -0.051,0 0.79593,-2.2862 1.13769,-3.07095 0.50896,-1.1687 1.30156,-2.71017 1.39352,-2.71017 0.0343,0 0.0623,-0.0501 0.0623,-0.11133 0,-0.0612 0.27713,-0.53021 0.61585,-1.04217 1.99396,-3.01379 4.61302,-5.43882 6.865067,-6.35647 1.06379,-0.43347 1.66308,-0.5638 2.90149,-0.631 0.43458,-0.0236 0.65575,-0.0614 1.2978,-0.22222 0.0433,-0.0108 0.3197,-0.15527 0.6143,-0.32097 0.94112,-0.52937 1.53526,-0.69303 2.67008,-0.73549 0.67786,-0.0254 1.07676,-0.007 1.22957,0.0561 0.28816,0.11936 0.62756,0.47206 0.69077,0.71784 0.0889,0.34551 0.1449,1.36522 0.0904,1.6454 -0.0294,0.15141 -0.0757,0.70003 -0.10293,1.21915 -0.0996,1.90151 -0.11284,2.08942 -0.15213,2.15299 -0.022,0.0356 -0.0425,0.45065 -0.0455,0.92226 -0.003,0.47162 -0.0308,1.17604 -0.0617,1.56538 -0.031,0.38934 -0.0386,1.0018 -0.017,1.36102 0.0216,0.35922 0.0104,0.68194 -0.025,0.71716 -0.07,0.0697 -0.0849,2.2517 -0.0161,2.36293 0.0232,0.0374 0.01,0.08 -0.0302,0.0945 -0.0621,0.0226 -0.17788,1.62725 -0.19765,2.73996 -0.003,0.19467 -0.0345,0.37473 -0.0689,0.40014 -0.0344,0.0254 -0.076,0.18468 -0.0923,0.35395 -0.0163,0.16926 -0.0471,0.41393 -0.0684,0.54372 -0.13542,0.82441 -0.34208,2.69307 -0.40449,3.65744 -0.0266,0.41097 -0.0632,0.90649 -0.0812,1.10116 -0.0181,0.19467 -0.052,0.70789 -0.0754,1.14049 -0.0234,0.4326 -0.0612,0.91043 -0.084,1.06184 -0.0228,0.15141 -0.0565,0.62924 -0.0749,1.06184 -0.0184,0.4326 -0.0514,1.20401 -0.0735,1.71425 -0.022,0.51024 -0.061,0.96152 -0.0865,1.00285 -0.0255,0.0413 -0.0167,0.0751 0.0196,0.0751 0.0363,0 0.0296,0.43358 -0.015,0.96352 -0.0446,0.52993 -0.0634,1.12279 -0.0417,1.31746 0.0216,0.19468 0.0102,0.93669 -0.0254,1.64893 -0.0359,0.71885 -0.0339,1.66366 0.005,2.12367 0.0381,0.45579 0.0484,0.93329 0.0229,1.06113 -0.0255,0.12783 -0.009,0.59935 0.0377,1.04782 0.0463,0.44847 0.0614,0.82948 0.0335,0.84669 -0.0279,0.0172 -0.0185,0.21819 0.0208,0.44662 0.0393,0.22843 0.0702,0.58344 0.0687,0.78893 -0.003,0.45682 0.0628,0.46688 0.58458,0.0888 0.37854,-0.27433 1.22591,-0.70524 1.51288,-0.76935 0.28393,-0.0634 0.49256,-0.14551 0.49256,-0.19382 0,-0.0603 0.10461,-0.0708 1.25548,-0.12586 0.98764,-0.0472 1.29366,0.0119 1.72372,0.33337 0.2596,0.19403 0.26455,0.2085 0.21867,0.63917 -0.0258,0.24235 -0.22572,1.14188 -0.44421,1.99896 -0.21849,0.85708 -0.37861,1.5885 -0.35582,1.62537 0.0228,0.0369 0.0118,0.0789 -0.0245,0.0934 -0.0363,0.0145 -0.25405,0.75197 -0.48398,1.6388 -0.22992,0.88683 -0.45257,1.65667 -0.49478,1.71074 -0.0422,0.0541 -0.0573,0.0983 -0.0334,0.0983 0.0238,0 -0.0428,0.32168 -0.14802,0.71485 -0.10522,0.39317 -0.17324,0.74409 -0.15115,0.77983 0.0221,0.0357 0.012,0.0769 -0.0224,0.0914 -0.0886,0.0374 -0.34449,1.00386 -0.28938,1.09303 0.0251,0.0406 0.0156,0.0738 -0.0212,0.0738 -0.0835,0 -0.35653,1.00384 -0.29855,1.09767 0.0234,0.0378 0.0116,0.0806 -0.0262,0.0951 -0.0378,0.0145 -0.19479,0.48101 -0.3489,1.03668 -0.38201,1.37734 -0.6941,1.79106 -1.99884,2.64985 -0.92163,0.60661 -1.64749,0.87091 -2.49209,0.90739 -0.39395,0.017 -0.8159,-10e-4 -0.93768,-0.0409 z m -6.25458,-27.30632 c 0.34518,-0.0862 0.96477,-0.62012 1.17087,-1.00895 0.25044,-0.47247 0.64397,-1.29785 0.6584,-1.38089 0.008,-0.0433 0.0527,-0.14945 0.10033,-0.23596 0.13754,-0.24968 0.65472,-1.77523 0.7014,-2.06897 0.0233,-0.14668 0.0882,-0.41893 0.1442,-0.605 0.056,-0.18606 0.0761,-0.37997 0.0446,-0.43091 -0.0315,-0.0509 -0.013,-0.22133 0.0411,-0.37866 0.0583,-0.1696 0.0725,-0.35397 0.0349,-0.45285 -0.0349,-0.0917 -0.0309,-0.21692 0.009,-0.2782 0.0397,-0.0613 0.0721,-0.2707 0.0719,-0.46537 -2.3e-4,-0.19467 0.0348,-0.6017 0.0777,-0.90453 0.043,-0.30282 0.0946,-0.83373 0.11478,-1.17981 0.0202,-0.34608 0.0696,-0.73953 0.10986,-0.87434 0.0403,-0.1348 0.0441,-0.29217 0.009,-0.3497 -0.0356,-0.0575 -0.0303,-0.16878 0.0116,-0.24721 0.042,-0.0784 0.0716,-0.275 0.0657,-0.43684 -0.006,-0.16183 0.0243,-0.40454 0.067,-0.53934 0.0427,-0.1348 0.0493,-0.29082 0.0148,-0.3467 -0.0345,-0.0559 -0.033,-0.17566 0.003,-0.26616 0.0562,-0.13981 0.21804,-1.71295 0.35679,-3.46805 0.0427,-0.54023 0.079,-0.92912 0.19309,-2.07096 0.0447,-0.44686 0.0744,-0.8539 0.066,-0.90452 -0.008,-0.0506 0.007,-0.21594 0.0334,-0.36734 0.0267,-0.15141 0.0642,-0.49174 0.0834,-0.75628 l 0.0349,-0.48097 -0.27985,-0.0859 c -0.15392,-0.0472 -0.3094,-0.0676 -0.34553,-0.0453 -0.0361,0.0223 -0.0657,0.003 -0.0657,-0.0426 0,-0.11962 -0.74945,-0.0535 -0.92107,0.0813 -0.4669,0.36664 -1.28865,1.2353 -1.77875,1.88028 -0.63957,0.84169 -1.36095,1.95637 -1.33123,2.05705 0.0108,0.0366 -0.0132,0.0666 -0.0533,0.0666 -0.0821,0 -1.316147,2.46903 -1.356297,2.71359 -0.0142,0.0865 -0.046,0.175 -0.0706,0.19663 -0.11477,0.10088 -1.04213,2.75292 -0.96264,2.75292 0.0239,0 0.007,0.0442 -0.0374,0.0983 -0.0445,0.0541 -0.0998,0.2045 -0.12296,0.33428 -0.0231,0.12978 -0.078,0.35985 -0.12192,0.51126 -0.078,0.26888 -0.14986,0.58805 -0.20363,0.90452 -0.0742,0.4365 -0.12787,0.71941 -0.15675,0.82588 -0.0314,0.11579 -0.066,0.43467 -0.16617,1.53376 -0.0559,0.61356 -0.05,1.02737 0.0181,1.24866 0.0324,0.1053 0.0169,0.12995 -0.0539,0.0862 -0.0593,-0.0367 -0.0795,-0.0295 -0.0503,0.0179 0.0269,0.0436 0.0676,0.33531 0.0904,0.6483 0.0228,0.31299 0.0627,0.60338 0.0886,0.64531 0.0259,0.0419 0.0593,0.15386 0.0742,0.24872 0.0149,0.0949 0.0461,0.29636 0.0695,0.44777 0.0898,0.58186 0.7032,2.12368 0.84485,2.12368 0.0365,0 0.0663,0.0459 0.0663,0.10202 0,0.2024 0.91076,0.95691 1.22056,1.01117 0.0857,0.015 0.1736,0.0455 0.19523,0.0676 0.0216,0.0222 0.14551,0.0795 0.27529,0.12724 0.23512,0.0866 0.370387,0.0779 0.917537,-0.0587 z"
       id="path17029" />
  </g>
</svg>
